<svg id="Layer_2" data-name="Layer 2" xmlns="http://www.w3.org/2000/svg" viewBox="0 0 135.48 160.07"><defs><style>.cls-1{fill:#fff;}</style></defs><title>logo2</title><path class="cls-1" d="M233,385.29s-8-72.65,70.71-74.9c0,0,66.86,2.57,63.32,76.82,0,0,12-82.92-65.25-85.82C301.82,301.39,223.71,300.75,233,385.29Z" transform="translate(-232.26 -301.39)"/><path class="cls-1" d="M269,324.21s11.56,27.33,28.6,27.65,31.5-18.32,31.5-18.32,4.18-1.61,3.86,6.75c0,0-25.71,28-27.32,37.92s6.43,78.43,6.43,78.43H301l-12.39-75.53L279,442.82h-7.71L277.71,375s4.18-6.43-12.85-44.36C264.86,330.64,264.86,322.29,269,324.21Z" transform="translate(-232.26 -301.39)"/><circle class="cls-1" cx="63.89" cy="36.2" r="9.84"/><path class="cls-1" d="M239.07,365.63s6.51,15.33,16.1,15.51,17.74-10.28,17.74-10.28,2.35-.91,2.17,3.78c0,0-14.48,15.69-15.38,21.28s3.62,44,3.62,44h-6.24l-7-42.38-5.43,34.62h-4.34L244,394.12s2.35-3.61-7.24-24.89C236.72,369.23,236.72,364.54,239.07,365.63Z" transform="translate(-232.26 -301.39)"/><path class="cls-1" d="M318.32,365.67s8.28,19.77,20.5,20,22.58-13.25,22.58-13.25,3-1.17,2.77,4.88c0,0-18.44,20.23-19.59,27.43s4.61,56.73,4.61,56.73h-7.94l-8.88-54.63-6.91,44.64h-5.53l4.61-49.06s3-4.65-9.22-32.09C315.32,370.32,315.32,364.28,318.32,365.67Z" transform="translate(-232.26 -301.39)"/><circle class="cls-1" cx="105.38" cy="73.73" r="6.84"/><circle class="cls-1" cx="23.29" cy="65.37" r="6.84"/></svg>